# xmcd
#
# Track frame offsets: 
#        150
#        28463
#        48563
#        77176
#        108076
#        124951
#        155814
#        186152
#        207265
#        233290
#        263665
#
# Disc length: 4100 seconds
#
# Revision: 0
# Processed by: cddbd v1.5.2PL0 Copyright (c) Steve Scherf et al.
# Submitted via: ExactAudioCopy v1.0b3
#
DISCID=9410020b
DTITLE=Mad Dawgs - Mad Dawgs ...live!
DYEAR=2010
DGENRE=Blues
TTITLE0=Give it up or let me go
TTITLE1=T-Bone Shuffle
TTITLE2=Big Kat Boogie
TTITLE3=Exactly like You
TTITLE4=Jambalaya
TTITLE5=Lousiana 1927
TTITLE6=Hold it right there
TTITLE7=Is You is or is You ain't my Baby
TTITLE8=I can't make You love me
TTITLE9=Let the Back Door hit You
TTITLE10=Why You so mean to me
EXTD=
EXTT0=
EXTT1=
EXTT2=
EXTT3=
EXTT4=
EXTT5=
EXTT6=
EXTT7=
EXTT8=
EXTT9=
EXTT10=
PLAYORDER=
